<?xml version="1.0" standalone="no"?>
<!DOCTYPE svg PUBLIC "-//W3C//DTD SVG 20010904//EN"
 "http://www.w3.org/TR/2001/REC-SVG-20010904/DTD/svg10.dtd">
<svg version="1.0" xmlns="http://www.w3.org/2000/svg"
 width="400.000000pt" height="400.000000pt" viewBox="0 0 400.000000 400.000000"
 preserveAspectRatio="xMidYMid meet">
<metadata>
Created by potrace 1.11, written by Peter Selinger 2001-2013
</metadata>
<g transform="translate(0.000000,400.000000) scale(0.100000,-0.100000)"
fill="#000000" stroke="none">
<path d="M1760 3985 c-356 -44 -698 -184 -985 -404 -85 -64 -256 -232 -328
-321 -489 -606 -584 -1441 -243 -2135 110 -225 228 -387 407 -560 168 -162
302 -257 514 -361 679 -334 1490 -251 2100 215 85 64 256 232 328 321 285 353
447 810 447 1260 0 450 -162 907 -447 1260 -72 89 -243 257 -328 321 -419 321
-952 467 -1465 404z m580 -528 c194 -47 335 -108 495 -215 323 -214 543 -535
636 -927 22 -89 24 -123 24 -320 0 -246 -9 -309 -72 -490 -77 -222 -191 -403
-358 -570 -177 -177 -352 -287 -575 -363 -182 -62 -274 -76 -495 -76 -155 1
-208 5 -288 22 -605 132 -1047 574 -1179 1179 -29 132 -31 432 -5 568 61 313
201 573 431 800 230 227 521 370 851 419 17 2 120 3 230 2 176 -3 213 -6 305
-29z"/>
<path d="M1835 3304 c-429 -61 -800 -320 -1001 -698 -78 -146 -126 -307 -145
-481 -57 -539 235 -1067 726 -1313 379 -190 829 -186 1201 12 337 180 572 482
670 861 31 123 43 351 25 487 -63 475 -407 899 -861 1062 -152 55 -223 67
-410 71 -96 2 -188 1 -205 -1z m-383 -831 l88 -88 88 88 c48 48 92 87 98 87 5
0 36 -27 69 -60 l60 -60 -93 -92 -92 -93 91 -91 91 -91 -61 -62 c-33 -33 -64
-61 -68 -61 -4 0 -47 39 -95 87 l-88 88 -88 -88 c-48 -48 -92 -87 -98 -87 -5
0 -36 27 -69 60 l-59 60 92 93 92 92 -92 93 -93 92 60 60 c33 33 64 60 69 60
6 0 50 -39 98 -87z m890 40 c25 -27 64 -66 87 -88 l41 -39 90 89 89 89 23 -19
c40 -33 98 -95 98 -105 0 -5 -39 -49 -86 -96 l-86 -86 78 -81 c44 -44 85 -86
92 -91 10 -9 -2 -26 -53 -76 l-65 -65 -90 90 -89 89 -23 -20 c-13 -10 -54 -49
-92 -86 -37 -38 -71 -68 -75 -68 -4 0 -33 27 -66 60 l-59 60 92 93 92 92 -92
93 -93 92 60 60 c33 33 65 60 71 60 6 0 32 -21 56 -47z m568 -933 l0 -90 -78
0 -79 0 -6 -130 c-5 -111 -9 -137 -33 -189 -31 -71 -102 -142 -172 -174 -66
-31 -197 -31 -264 0 -63 29 -134 96 -166 158 -24 46 -27 62 -30 192 l-4 143
-491 2 -492 3 -3 88 -3 87 911 0 910 0 0 -90z"/>
<path d="M2260 1377 c0 -134 14 -169 80 -204 53 -28 82 -29 136 -2 71 34 84
66 84 203 l0 116 -150 0 -150 0 0 -113z"/>
</g>
</svg>
